# Blender 3.6.0
# www.blender.org
o Text.006
v -1.317253 0.100000 -0.326453
v -1.317253 0.100000 0.355547
v -1.415253 0.100000 -0.326453
v -1.415253 -0.100000 -0.326453
v -1.317253 -0.100000 -0.326453
v -1.317253 -0.100000 0.355547
v -1.415253 -0.100000 0.355547
v -1.415253 0.100000 0.355547
vn -0.0000 1.0000 -0.0000
vn -0.0000 -1.0000 -0.0000
vn 1.0000 -0.0000 -0.0000
vn -0.0000 -0.0000 1.0000
vn -1.0000 -0.0000 -0.0000
vn -0.0000 -0.0000 -1.0000
vt 0.451000 0.159000
vt 0.549000 0.841000
vt 0.451000 0.841000
vt 0.549000 0.159000
vt 0.841000 0.600000
vt 0.159000 0.400000
vt 0.159000 0.600000
vt 0.549000 0.600000
vt 0.451000 0.400000
vt 0.451000 0.600000
vt 0.841000 0.400000
vt 0.549000 0.400000
s 1
f 1/1/1 8/2/1 2/3/1
f 1/1/1 3/4/1 8/2/1
f 5/1/2 6/3/2 7/2/2
f 5/1/2 7/2/2 4/4/2
f 2/5/3 5/6/3 1/7/3
f 8/8/4 6/9/4 2/10/4
f 3/7/5 7/11/5 8/5/5
f 1/10/6 4/12/6 3/8/6
f 2/5/3 6/11/3 5/6/3
f 8/8/4 7/12/4 6/9/4
f 3/7/5 4/6/5 7/11/5
f 1/10/6 5/9/6 4/12/6
